solid cam_mount
facet normal 0.866025403784438 -0.5000000000000009 -9.371306952495865e-20
  outer loop
    vertex 0.0006251492646754563 -0.048347483382298016 -2.114974861910923e-15
    vertex -0.07246111477489792 -0.17493660603423294 10.0
    vertex -0.07246111477489792 -0.17493660603423294 0.0
  endloop
endfacet
facet normal 0.866025403784438 -0.5000000000000009 -9.371306952495865e-20
  outer loop
    vertex -0.07246111477489792 -0.17493660603423294 10.0
    vertex 0.0006251492646754563 -0.048347483382298016 -2.114974861910923e-15
    vertex 0.0006251492646754563 -0.048347483382298016 10.0
  endloop
endfacet
facet normal -1.0 0.0 0.0
  outer loop
    vertex -0.07246111477489792 -0.17493660603423294 10.0
    vertex -0.07246111477489792 3.4145922248993323 5.82
    vertex -0.07246111477489792 -0.17493660603423294 0.0
  endloop
endfacet
facet normal -1.0 0.0 0.0
  outer loop
    vertex -0.07246111477489792 3.4145922248993323 5.82
    vertex -0.07246111477489792 -0.17493660603423294 10.0
    vertex -0.07246111477489792 3.675218765959874 6.159655121145938
  endloop
endfacet
facet normal -1.0 0.0 0.0
  outer loop
    vertex -0.07246111477489792 3.675218765959874 6.159655121145938
    vertex -0.07246111477489792 -0.17493660603423294 10.0
    vertex -0.07246111477489792 4.0148738871058125 6.420281662206479
  endloop
endfacet
facet normal -1.0 0.0 0.0
  outer loop
    vertex -0.07246111477489792 4.0148738871058125 6.420281662206479
    vertex -0.07246111477489792 -0.17493660603423294 10.0
    vertex -0.07246111477489792 9.825063393965767 10.0
  endloop
endfacet
facet normal -1.0 0.0 0.0
  outer loop
    vertex -0.07246111477489792 -0.17493660603423294 0.0
    vertex -0.07246111477489792 3.4145922248993323 5.82
    vertex -0.07246111477489792 3.25075553199174 5.424463233968136
  endloop
endfacet
facet normal -1.0 0.0 0.0
  outer loop
    vertex -0.07246111477489792 -0.17493660603423294 0.0
    vertex -0.07246111477489792 3.25075553199174 5.424463233968136
    vertex -0.07246111477489792 3.1948738871058113 5.0
  endloop
endfacet
facet normal -1.0 0.0 0.0
  outer loop
    vertex -0.07246111477489792 4.0148738871058125 6.420281662206479
    vertex -0.07246111477489792 9.825063393965767 10.0
    vertex -0.07246111477489792 4.410410653137678 6.584118355114072
  endloop
endfacet
facet normal -1.0 0.0 0.0
  outer loop
    vertex -0.07246111477489792 4.410410653137678 6.584118355114072
    vertex -0.07246111477489792 9.825063393965767 10.0
    vertex -0.07246111477489792 4.834873887105811 6.640000000000001
  endloop
endfacet
facet normal -1.0 0.0 0.0
  outer loop
    vertex -0.07246111477489792 4.834873887105811 6.640000000000001
    vertex -0.07246111477489792 9.825063393965767 10.0
    vertex -0.07246111477489792 5.259337121073946 6.584118355114072
  endloop
endfacet
facet normal -1.0 0.0 0.0
  outer loop
    vertex -0.07246111477489792 5.259337121073946 6.584118355114072
    vertex -0.07246111477489792 9.825063393965767 10.0
    vertex -0.07246111477489792 5.654873887105811 6.420281662206479
  endloop
endfacet
facet normal -1.0 0.0 0.0
  outer loop
    vertex -0.07246111477489792 5.654873887105811 6.420281662206479
    vertex -0.07246111477489792 9.825063393965767 10.0
    vertex -0.07246111477489792 5.9945290082517495 6.159655121145937
  endloop
endfacet
facet normal -1.0 0.0 0.0
  outer loop
    vertex -0.07246111477489792 5.9945290082517495 6.159655121145937
    vertex -0.07246111477489792 9.825063393965767 10.0
    vertex -0.07246111477489792 6.255155549312289 5.819999999999999
  endloop
endfacet
facet normal -1.0 0.0 0.0
  outer loop
    vertex -0.07246111477489792 6.255155549312289 5.819999999999999
    vertex -0.07246111477489792 9.825063393965767 10.0
    vertex -0.07246111477489792 6.4189922422198835 5.424463233968133
  endloop
endfacet
facet normal -1.0 0.0 0.0
  outer loop
    vertex -0.07246111477489792 6.4189922422198835 5.424463233968133
    vertex -0.07246111477489792 9.825063393965767 10.0
    vertex -0.07246111477489792 6.474873887105811 5.0
  endloop
endfacet
facet normal -1.0 0.0 0.0
  outer loop
    vertex -0.07246111477489792 38.82506339396577 12.999999999999998
    vertex -0.07246111477489792 10.82506339396577 10.0
    vertex -0.07246111477489792 10.82506339396577 12.999999999999998
  endloop
endfacet
facet normal -1.0 0.0 0.0
  outer loop
    vertex -0.07246111477489792 10.82506339396577 10.0
    vertex -0.07246111477489792 38.82506339396577 12.999999999999998
    vertex -0.07246111477489792 24.400600159997637 9.584118355114073
  endloop
endfacet
facet normal -1.0 0.0 0.0
  outer loop
    vertex -0.07246111477489792 10.82506339396577 10.0
    vertex -0.07246111477489792 24.400600159997637 9.584118355114073
    vertex -0.07246111477489792 24.00506339396577 9.420281662206483
  endloop
endfacet
facet normal -1.0 0.0 0.0
  outer loop
    vertex -0.07246111477489792 10.82506339396577 10.0
    vertex -0.07246111477489792 24.00506339396577 9.420281662206483
    vertex -0.07246111477489792 23.665408272819832 9.15965512114594
  endloop
endfacet
facet normal -1.0 0.0 0.0
  outer loop
    vertex -0.07246111477489792 10.82506339396577 10.0
    vertex -0.07246111477489792 23.665408272819832 9.15965512114594
    vertex -0.07246111477489792 23.404781731759293 8.820000000000002
  endloop
endfacet
facet normal -1.0 0.0 0.0
  outer loop
    vertex -0.07246111477489792 10.82506339396577 10.0
    vertex -0.07246111477489792 23.404781731759293 8.820000000000002
    vertex -0.07246111477489792 23.2409450388517 8.424463233968137
  endloop
endfacet
facet normal -1.0 0.0 0.0
  outer loop
    vertex -0.07246111477489792 10.82506339396577 10.0
    vertex -0.07246111477489792 23.2409450388517 8.424463233968137
    vertex -0.07246111477489792 23.18506339396577 8.0
  endloop
endfacet
facet normal -1.0 0.0 0.0
  outer loop
    vertex -0.07246111477489792 24.400600159997637 9.584118355114073
    vertex -0.07246111477489792 38.82506339396577 12.999999999999998
    vertex -0.07246111477489792 24.82506339396577 9.640000000000002
  endloop
endfacet
facet normal -1.0 0.0 0.0
  outer loop
    vertex -0.07246111477489792 24.82506339396577 9.640000000000002
    vertex -0.07246111477489792 38.82506339396577 12.999999999999998
    vertex -0.07246111477489792 25.249526627933907 9.584118355114073
  endloop
endfacet
facet normal -1.0 0.0 0.0
  outer loop
    vertex -0.07246111477489792 25.249526627933907 9.584118355114073
    vertex -0.07246111477489792 38.82506339396577 12.999999999999998
    vertex -0.07246111477489792 25.645063393965774 9.420281662206481
  endloop
endfacet
facet normal -1.0 0.0 0.0
  outer loop
    vertex -0.07246111477489792 25.645063393965774 9.420281662206481
    vertex -0.07246111477489792 38.82506339396577 12.999999999999998
    vertex -0.07246111477489792 25.984718515111705 9.159655121145938
  endloop
endfacet
facet normal -1.0 0.0 0.0
  outer loop
    vertex -0.07246111477489792 25.984718515111705 9.159655121145938
    vertex -0.07246111477489792 38.82506339396577 12.999999999999998
    vertex -0.07246111477489792 26.24534505617225 8.820000000000002
  endloop
endfacet
facet normal -1.0 0.0 0.0
  outer loop
    vertex -0.07246111477489792 26.24534505617225 8.820000000000002
    vertex -0.07246111477489792 38.82506339396577 12.999999999999998
    vertex -0.07246111477489792 26.409181749079846 8.424463233968135
  endloop
endfacet
facet normal -1.0 0.0 0.0
  outer loop
    vertex -0.07246111477489792 26.409181749079846 8.424463233968135
    vertex -0.07246111477489792 38.82506339396577 12.999999999999998
    vertex -0.07246111477489792 26.46506339396577 8.0
  endloop
endfacet
facet normal -1.0 0.0 0.0
  outer loop
    vertex -0.07246111477489792 -0.17493660603423294 0.0
    vertex -0.07246111477489792 4.834873887105811 3.3600000000000003
    vertex -0.07246111477489792 39.82506339396577 0.0
  endloop
endfacet
facet normal -1.0 0.0 0.0
  outer loop
    vertex -0.07246111477489792 4.834873887105811 3.3600000000000003
    vertex -0.07246111477489792 -0.17493660603423294 0.0
    vertex -0.07246111477489792 4.410410653137677 3.4158816448859284
  endloop
endfacet
facet normal -1.0 0.0 0.0
  outer loop
    vertex -0.07246111477489792 4.410410653137677 3.4158816448859284
    vertex -0.07246111477489792 -0.17493660603423294 0.0
    vertex -0.07246111477489792 4.014873887105811 3.579718337793521
  endloop
endfacet
facet normal -1.0 0.0 0.0
  outer loop
    vertex -0.07246111477489792 4.014873887105811 3.579718337793521
    vertex -0.07246111477489792 -0.17493660603423294 0.0
    vertex -0.07246111477489792 3.675218765959873 3.840344878854063
  endloop
endfacet
facet normal -1.0 0.0 0.0
  outer loop
    vertex -0.07246111477489792 3.675218765959873 3.840344878854063
    vertex -0.07246111477489792 -0.17493660603423294 0.0
    vertex -0.07246111477489792 3.414592224899332 4.180000000000001
  endloop
endfacet
facet normal -1.0 0.0 0.0
  outer loop
    vertex -0.07246111477489792 3.414592224899332 4.180000000000001
    vertex -0.07246111477489792 -0.17493660603423294 0.0
    vertex -0.07246111477489792 3.250755531991739 4.575536766031866
  endloop
endfacet
facet normal -1.0 0.0 0.0
  outer loop
    vertex -0.07246111477489792 3.250755531991739 4.575536766031866
    vertex -0.07246111477489792 -0.17493660603423294 0.0
    vertex -0.07246111477489792 3.1948738871058113 5.0
  endloop
endfacet
facet normal -1.0 0.0 0.0
  outer loop
    vertex -0.07246111477489792 39.82506339396577 0.0
    vertex -0.07246111477489792 4.834873887105811 3.3600000000000003
    vertex -0.07246111477489792 5.259337121073945 3.4158816448859284
  endloop
endfacet
facet normal -1.0 0.0 0.0
  outer loop
    vertex -0.07246111477489792 39.82506339396577 0.0
    vertex -0.07246111477489792 5.259337121073945 3.4158816448859284
    vertex -0.07246111477489792 5.6548738871058095 3.579718337793521
  endloop
endfacet
facet normal -1.0 0.0 0.0
  outer loop
    vertex -0.07246111477489792 39.82506339396577 0.0
    vertex -0.07246111477489792 5.6548738871058095 3.579718337793521
    vertex -0.07246111477489792 5.994529008251749 3.8403448788540624
  endloop
endfacet
facet normal -1.0 0.0 0.0
  outer loop
    vertex -0.07246111477489792 39.82506339396577 0.0
    vertex -0.07246111477489792 5.994529008251749 3.8403448788540624
    vertex -0.07246111477489792 6.255155549312289 4.18
  endloop
endfacet
facet normal -1.0 0.0 0.0
  outer loop
    vertex -0.07246111477489792 39.82506339396577 0.0
    vertex -0.07246111477489792 6.255155549312289 4.18
    vertex -0.07246111477489792 6.418992242219882 4.575536766031866
  endloop
endfacet
facet normal -1.0 0.0 0.0
  outer loop
    vertex -0.07246111477489792 39.82506339396577 0.0
    vertex -0.07246111477489792 6.418992242219882 4.575536766031866
    vertex -0.07246111477489792 6.474873887105811 5.0
  endloop
endfacet
facet normal -1.0 0.0 0.0
  outer loop
    vertex -0.07246111477489792 39.82506339396577 0.0
    vertex -0.07246111477489792 6.474873887105811 5.0
    vertex -0.07246111477489792 9.825063393965767 10.0
  endloop
endfacet
facet normal -1.0 0.0 0.0
  outer loop
    vertex -0.07246111477489792 39.82506339396577 0.0
    vertex -0.07246111477489792 9.825063393965767 10.0
    vertex -0.07246111477489792 10.82506339396577 10.0
  endloop
endfacet
facet normal -1.0 0.0 0.0
  outer loop
    vertex -0.07246111477489792 39.82506339396577 0.0
    vertex -0.07246111477489792 10.82506339396577 10.0
    vertex -0.07246111477489792 24.00506339396577 6.579718337793521
  endloop
endfacet
facet normal -1.0 0.0 0.0
  outer loop
    vertex -0.07246111477489792 24.00506339396577 6.579718337793521
    vertex -0.07246111477489792 10.82506339396577 10.0
    vertex -0.07246111477489792 23.665408272819832 6.8403448788540615
  endloop
endfacet
facet normal -1.0 0.0 0.0
  outer loop
    vertex -0.07246111477489792 23.665408272819832 6.8403448788540615
    vertex -0.07246111477489792 10.82506339396577 10.0
    vertex -0.07246111477489792 23.404781731759293 7.180000000000001
  endloop
endfacet
facet normal -1.0 0.0 0.0
  outer loop
    vertex -0.07246111477489792 23.404781731759293 7.180000000000001
    vertex -0.07246111477489792 10.82506339396577 10.0
    vertex -0.07246111477489792 23.2409450388517 7.575536766031866
  endloop
endfacet
facet normal -1.0 0.0 0.0
  outer loop
    vertex -0.07246111477489792 23.2409450388517 7.575536766031866
    vertex -0.07246111477489792 10.82506339396577 10.0
    vertex -0.07246111477489792 23.18506339396577 8.0
  endloop
endfacet
facet normal -1.0 0.0 0.0
  outer loop
    vertex -0.07246111477489792 39.82506339396577 0.0
    vertex -0.07246111477489792 24.00506339396577 6.579718337793521
    vertex -0.07246111477489792 24.400600159997637 6.415881644885928
  endloop
endfacet
facet normal -1.0 0.0 0.0
  outer loop
    vertex -0.07246111477489792 39.82506339396577 0.0
    vertex -0.07246111477489792 24.400600159997637 6.415881644885928
    vertex -0.07246111477489792 24.82506339396577 6.36
  endloop
endfacet
facet normal -1.0 0.0 0.0
  outer loop
    vertex -0.07246111477489792 39.82506339396577 0.0
    vertex -0.07246111477489792 24.82506339396577 6.36
    vertex -0.07246111477489792 25.249526627933907 6.415881644885928
  endloop
endfacet
facet normal -1.0 0.0 0.0
  outer loop
    vertex -0.07246111477489792 39.82506339396577 0.0
    vertex -0.07246111477489792 25.249526627933907 6.415881644885928
    vertex -0.07246111477489792 25.645063393965767 6.57971833779352
  endloop
endfacet
facet normal -1.0 0.0 0.0
  outer loop
    vertex -0.07246111477489792 39.82506339396577 0.0
    vertex -0.07246111477489792 25.645063393965767 6.57971833779352
    vertex -0.07246111477489792 25.984718515111705 6.8403448788540615
  endloop
endfacet
facet normal -1.0 0.0 0.0
  outer loop
    vertex -0.07246111477489792 39.82506339396577 0.0
    vertex -0.07246111477489792 25.984718515111705 6.8403448788540615
    vertex -0.07246111477489792 26.24534505617225 7.180000000000001
  endloop
endfacet
facet normal -1.0 0.0 0.0
  outer loop
    vertex -0.07246111477489792 39.82506339396577 0.0
    vertex -0.07246111477489792 26.24534505617225 7.180000000000001
    vertex -0.07246111477489792 26.409181749079846 7.575536766031866
  endloop
endfacet
facet normal -1.0 0.0 0.0
  outer loop
    vertex -0.07246111477489792 39.82506339396577 0.0
    vertex -0.07246111477489792 26.409181749079846 7.575536766031866
    vertex -0.07246111477489792 26.46506339396577 8.0
  endloop
endfacet
facet normal -1.0 0.0 0.0
  outer loop
    vertex -0.07246111477489792 39.82506339396577 0.0
    vertex -0.07246111477489792 26.46506339396577 8.0
    vertex -0.07246111477489792 38.82506339396577 10.0
  endloop
endfacet
facet normal -1.0 0.0 0.0
  outer loop
    vertex -0.07246111477489792 38.82506339396577 10.0
    vertex -0.07246111477489792 26.46506339396577 8.0
    vertex -0.07246111477489792 38.82506339396577 12.999999999999998
  endloop
endfacet
facet normal -1.0 0.0 0.0
  outer loop
    vertex -0.07246111477489792 39.82506339396577 0.0
    vertex -0.07246111477489792 38.82506339396577 10.0
    vertex -0.07246111477489792 39.82506339396577 10.0
  endloop
endfacet
facet normal 0.0 1.0 0.0
  outer loop
    vertex -0.07246111477489792 39.82506339396577 10.0
    vertex 26.927538885225104 39.82506339396577 0.0
    vertex -0.07246111477489792 39.82506339396577 0.0
  endloop
endfacet
facet normal 0.0 1.0 0.0
  outer loop
    vertex 26.927538885225104 39.82506339396577 0.0
    vertex -0.07246111477489792 39.82506339396577 10.0
    vertex 26.927538885225104 39.82506339396577 10.0
  endloop
endfacet
facet normal 1.0 0.0 0.0
  outer loop
    vertex 26.927538885225104 39.82506339396577 0.0
    vertex 26.927538885225104 9.825063393965767 10.0
    vertex 26.927538885225104 9.825063393965767 0.0
  endloop
endfacet
facet normal 1.0 0.0 0.0
  outer loop
    vertex 26.927538885225104 9.825063393965767 10.0
    vertex 26.927538885225104 39.82506339396577 0.0
    vertex 26.927538885225104 10.82506339396577 10.0
  endloop
endfacet
facet normal 1.0 0.0 0.0
  outer loop
    vertex 26.927538885225104 10.82506339396577 10.0
    vertex 26.927538885225104 39.82506339396577 0.0
    vertex 26.927538885225104 24.00506339396577 6.579718337793521
  endloop
endfacet
facet normal 1.0 0.0 0.0
  outer loop
    vertex 26.927538885225104 10.82506339396577 10.0
    vertex 26.927538885225104 24.00506339396577 6.579718337793521
    vertex 26.927538885225104 10.82506339396577 12.999999999999998
  endloop
endfacet
facet normal 1.0 0.0 0.0
  outer loop
    vertex 26.927538885225104 10.82506339396577 12.999999999999998
    vertex 26.927538885225104 24.00506339396577 6.579718337793521
    vertex 26.927538885225104 23.665408272819832 6.8403448788540615
  endloop
endfacet
facet normal 1.0 0.0 0.0
  outer loop
    vertex 26.927538885225104 10.82506339396577 12.999999999999998
    vertex 26.927538885225104 23.665408272819832 6.8403448788540615
    vertex 26.927538885225104 23.404781731759293 7.180000000000001
  endloop
endfacet
facet normal 1.0 0.0 0.0
  outer loop
    vertex 26.927538885225104 10.82506339396577 12.999999999999998
    vertex 26.927538885225104 23.404781731759293 7.180000000000001
    vertex 26.927538885225104 23.2409450388517 7.575536766031866
  endloop
endfacet
facet normal 1.0 0.0 0.0
  outer loop
    vertex 26.927538885225104 10.82506339396577 12.999999999999998
    vertex 26.927538885225104 23.2409450388517 7.575536766031866
    vertex 26.927538885225104 23.18506339396577 8.0
  endloop
endfacet
facet normal 1.0 0.0 0.0
  outer loop
    vertex 26.927538885225104 24.00506339396577 6.579718337793521
    vertex 26.927538885225104 39.82506339396577 0.0
    vertex 26.927538885225104 24.400600159997637 6.415881644885928
  endloop
endfacet
facet normal 1.0 0.0 0.0
  outer loop
    vertex 26.927538885225104 24.400600159997637 6.415881644885928
    vertex 26.927538885225104 39.82506339396577 0.0
    vertex 26.927538885225104 24.82506339396577 6.36
  endloop
endfacet
facet normal 1.0 0.0 0.0
  outer loop
    vertex 26.927538885225104 24.82506339396577 6.36
    vertex 26.927538885225104 39.82506339396577 0.0
    vertex 26.927538885225104 25.249526627933907 6.415881644885928
  endloop
endfacet
facet normal 1.0 0.0 0.0
  outer loop
    vertex 26.927538885225104 25.249526627933907 6.415881644885928
    vertex 26.927538885225104 39.82506339396577 0.0
    vertex 26.927538885225104 25.645063393965767 6.57971833779352
  endloop
endfacet
facet normal 1.0 0.0 0.0
  outer loop
    vertex 26.927538885225104 25.645063393965767 6.57971833779352
    vertex 26.927538885225104 39.82506339396577 0.0
    vertex 26.927538885225104 25.984718515111705 6.8403448788540615
  endloop
endfacet
facet normal 1.0 0.0 0.0
  outer loop
    vertex 26.927538885225104 25.984718515111705 6.8403448788540615
    vertex 26.927538885225104 39.82506339396577 0.0
    vertex 26.927538885225104 26.24534505617225 7.180000000000001
  endloop
endfacet
facet normal 1.0 0.0 0.0
  outer loop
    vertex 26.927538885225104 26.24534505617225 7.180000000000001
    vertex 26.927538885225104 39.82506339396577 0.0
    vertex 26.927538885225104 26.409181749079846 7.575536766031866
  endloop
endfacet
facet normal 1.0 0.0 0.0
  outer loop
    vertex 26.927538885225104 26.409181749079846 7.575536766031866
    vertex 26.927538885225104 39.82506339396577 0.0
    vertex 26.927538885225104 26.46506339396577 8.0
  endloop
endfacet
facet normal 1.0 0.0 0.0
  outer loop
    vertex 26.927538885225104 26.46506339396577 8.0
    vertex 26.927538885225104 39.82506339396577 0.0
    vertex 26.927538885225104 38.82506339396577 10.0
  endloop
endfacet
facet normal 1.0 0.0 0.0
  outer loop
    vertex 26.927538885225104 38.82506339396577 10.0
    vertex 26.927538885225104 39.82506339396577 0.0
    vertex 26.927538885225104 39.82506339396577 10.0
  endloop
endfacet
facet normal 1.0 0.0 0.0
  outer loop
    vertex 26.927538885225104 10.82506339396577 12.999999999999998
    vertex 26.927538885225104 24.400600159997637 9.584118355114073
    vertex 26.927538885225104 38.82506339396577 12.999999999999998
  endloop
endfacet
facet normal 1.0 0.0 0.0
  outer loop
    vertex 26.927538885225104 24.400600159997637 9.584118355114073
    vertex 26.927538885225104 10.82506339396577 12.999999999999998
    vertex 26.927538885225104 24.00506339396577 9.420281662206483
  endloop
endfacet
facet normal 1.0 0.0 0.0
  outer loop
    vertex 26.927538885225104 24.00506339396577 9.420281662206483
    vertex 26.927538885225104 10.82506339396577 12.999999999999998
    vertex 26.927538885225104 23.665408272819832 9.15965512114594
  endloop
endfacet
facet normal 1.0 0.0 0.0
  outer loop
    vertex 26.927538885225104 23.665408272819832 9.15965512114594
    vertex 26.927538885225104 10.82506339396577 12.999999999999998
    vertex 26.927538885225104 23.404781731759293 8.820000000000002
  endloop
endfacet
facet normal 1.0 0.0 0.0
  outer loop
    vertex 26.927538885225104 23.404781731759293 8.820000000000002
    vertex 26.927538885225104 10.82506339396577 12.999999999999998
    vertex 26.927538885225104 23.2409450388517 8.424463233968137
  endloop
endfacet
facet normal 1.0 0.0 0.0
  outer loop
    vertex 26.927538885225104 23.2409450388517 8.424463233968137
    vertex 26.927538885225104 10.82506339396577 12.999999999999998
    vertex 26.927538885225104 23.18506339396577 8.0
  endloop
endfacet
facet normal 1.0 0.0 0.0
  outer loop
    vertex 26.927538885225104 38.82506339396577 12.999999999999998
    vertex 26.927538885225104 24.400600159997637 9.584118355114073
    vertex 26.927538885225104 24.82506339396577 9.640000000000002
  endloop
endfacet
facet normal 1.0 0.0 0.0
  outer loop
    vertex 26.927538885225104 38.82506339396577 12.999999999999998
    vertex 26.927538885225104 24.82506339396577 9.640000000000002
    vertex 26.927538885225104 25.249526627933907 9.584118355114073
  endloop
endfacet
facet normal 1.0 0.0 0.0
  outer loop
    vertex 26.927538885225104 38.82506339396577 12.999999999999998
    vertex 26.927538885225104 25.249526627933907 9.584118355114073
    vertex 26.927538885225104 25.645063393965774 9.420281662206481
  endloop
endfacet
facet normal 1.0 0.0 0.0
  outer loop
    vertex 26.927538885225104 38.82506339396577 12.999999999999998
    vertex 26.927538885225104 25.645063393965774 9.420281662206481
    vertex 26.927538885225104 25.984718515111705 9.159655121145938
  endloop
endfacet
facet normal 1.0 0.0 0.0
  outer loop
    vertex 26.927538885225104 38.82506339396577 12.999999999999998
    vertex 26.927538885225104 25.984718515111705 9.159655121145938
    vertex 26.927538885225104 26.24534505617225 8.820000000000002
  endloop
endfacet
facet normal 1.0 0.0 0.0
  outer loop
    vertex 26.927538885225104 38.82506339396577 12.999999999999998
    vertex 26.927538885225104 26.24534505617225 8.820000000000002
    vertex 26.927538885225104 26.409181749079846 8.424463233968135
  endloop
endfacet
facet normal 1.0 0.0 0.0
  outer loop
    vertex 26.927538885225104 38.82506339396577 12.999999999999998
    vertex 26.927538885225104 26.409181749079846 8.424463233968135
    vertex 26.927538885225104 26.46506339396577 8.0
  endloop
endfacet
facet normal 1.0 0.0 0.0
  outer loop
    vertex 26.927538885225104 38.82506339396577 12.999999999999998
    vertex 26.927538885225104 26.46506339396577 8.0
    vertex 26.927538885225104 38.82506339396577 10.0
  endloop
endfacet
facet normal 0.0 0.38268343236508784 0.9238795325112877
  outer loop
    vertex 26.927538885225104 24.00506339396577 6.579718337793521
    vertex -0.07246111477489792 24.400600159997637 6.415881644885928
    vertex -0.07246111477489792 24.00506339396577 6.579718337793521
  endloop
endfacet
facet normal 0.0 0.38268343236508784 0.9238795325112877
  outer loop
    vertex -0.07246111477489792 24.400600159997637 6.415881644885928
    vertex 26.927538885225104 24.00506339396577 6.579718337793521
    vertex 26.927538885225104 24.400600159997637 6.415881644885928
  endloop
endfacet
facet normal 0.0 0.1305261922200529 0.9914448613738104
  outer loop
    vertex 26.927538885225104 24.400600159997637 6.415881644885928
    vertex -0.07246111477489792 24.82506339396577 6.36
    vertex -0.07246111477489792 24.400600159997637 6.415881644885928
  endloop
endfacet
facet normal 0.0 0.1305261922200529 0.9914448613738104
  outer loop
    vertex -0.07246111477489792 24.82506339396577 6.36
    vertex 26.927538885225104 24.400600159997637 6.415881644885928
    vertex 26.927538885225104 24.82506339396577 6.36
  endloop
endfacet
facet normal 0.0 0.0 1.0
  outer loop
    vertex 26.927538885225104 10.82506339396577 12.999999999999998
    vertex -0.07246111477489792 38.82506339396577 12.999999999999998
    vertex -0.07246111477489792 10.82506339396577 12.999999999999998
  endloop
endfacet
facet normal 0.0 0.0 1.0
  outer loop
    vertex -0.07246111477489792 38.82506339396577 12.999999999999998
    vertex 26.927538885225104 10.82506339396577 12.999999999999998
    vertex 26.927538885225104 38.82506339396577 12.999999999999998
  endloop
endfacet
facet normal 0.0 1.0 0.0
  outer loop
    vertex -0.07246111477489792 38.82506339396577 12.999999999999998
    vertex 26.927538885225104 38.82506339396577 10.0
    vertex -0.07246111477489792 38.82506339396577 10.0
  endloop
endfacet
facet normal 0.0 1.0 0.0
  outer loop
    vertex 26.927538885225104 38.82506339396577 10.0
    vertex -0.07246111477489792 38.82506339396577 12.999999999999998
    vertex 26.927538885225104 38.82506339396577 12.999999999999998
  endloop
endfacet
facet normal 0.0 0.6087614290087228 0.7933533402912336
  outer loop
    vertex 26.927538885225104 23.665408272819832 6.8403448788540615
    vertex -0.07246111477489792 24.00506339396577 6.579718337793521
    vertex -0.07246111477489792 23.665408272819832 6.8403448788540615
  endloop
endfacet
facet normal 0.0 0.6087614290087228 0.7933533402912336
  outer loop
    vertex -0.07246111477489792 24.00506339396577 6.579718337793521
    vertex 26.927538885225104 23.665408272819832 6.8403448788540615
    vertex 26.927538885225104 24.00506339396577 6.579718337793521
  endloop
endfacet
facet normal 0.0 -1.0 0.0
  outer loop
    vertex 26.927538885225104 10.82506339396577 12.999999999999998
    vertex -0.07246111477489792 10.82506339396577 10.0
    vertex 26.927538885225104 10.82506339396577 10.0
  endloop
endfacet
facet normal 0.0 -1.0 0.0
  outer loop
    vertex -0.07246111477489792 10.82506339396577 10.0
    vertex 26.927538885225104 10.82506339396577 12.999999999999998
    vertex -0.07246111477489792 10.82506339396577 12.999999999999998
  endloop
endfacet
facet normal 0.0 0.9238795325112856 0.3826834323650926
  outer loop
    vertex -0.07246111477489792 23.2409450388517 7.575536766031866
    vertex 26.927538885225104 23.404781731759293 7.180000000000001
    vertex -0.07246111477489792 23.404781731759293 7.180000000000001
  endloop
endfacet
facet normal 0.0 0.9238795325112856 0.3826834323650926
  outer loop
    vertex 26.927538885225104 23.404781731759293 7.180000000000001
    vertex -0.07246111477489792 23.2409450388517 7.575536766031866
    vertex 26.927538885225104 23.2409450388517 7.575536766031866
  endloop
endfacet
facet normal 0.0 0.9914448613738108 0.13052619222004933
  outer loop
    vertex -0.07246111477489792 23.18506339396577 8.0
    vertex 26.927538885225104 23.2409450388517 7.575536766031866
    vertex -0.07246111477489792 23.2409450388517 7.575536766031866
  endloop
endfacet
facet normal 0.0 0.9914448613738108 0.13052619222004933
  outer loop
    vertex 26.927538885225104 23.2409450388517 7.575536766031866
    vertex -0.07246111477489792 23.18506339396577 8.0
    vertex 26.927538885225104 23.18506339396577 8.0
  endloop
endfacet
facet normal 0.0 0.9914448613738108 -0.1305261922200489
  outer loop
    vertex -0.07246111477489792 23.2409450388517 8.424463233968137
    vertex 26.927538885225104 23.18506339396577 8.0
    vertex -0.07246111477489792 23.18506339396577 8.0
  endloop
endfacet
facet normal 0.0 0.9914448613738108 -0.1305261922200489
  outer loop
    vertex 26.927538885225104 23.18506339396577 8.0
    vertex -0.07246111477489792 23.2409450388517 8.424463233968137
    vertex 26.927538885225104 23.2409450388517 8.424463233968137
  endloop
endfacet
facet normal 0.0 0.9238795325112855 -0.3826834323650933
  outer loop
    vertex -0.07246111477489792 23.404781731759293 8.820000000000002
    vertex 26.927538885225104 23.2409450388517 8.424463233968137
    vertex -0.07246111477489792 23.2409450388517 8.424463233968137
  endloop
endfacet
facet normal 0.0 0.9238795325112855 -0.3826834323650933
  outer loop
    vertex 26.927538885225104 23.2409450388517 8.424463233968137
    vertex -0.07246111477489792 23.404781731759293 8.820000000000002
    vertex 26.927538885225104 23.404781731759293 8.820000000000002
  endloop
endfacet
facet normal 0.0 0.7933533402912343 -0.6087614290087218
  outer loop
    vertex -0.07246111477489792 23.665408272819832 9.15965512114594
    vertex 26.927538885225104 23.404781731759293 8.820000000000002
    vertex -0.07246111477489792 23.404781731759293 8.820000000000002
  endloop
endfacet
facet normal 0.0 0.7933533402912343 -0.6087614290087218
  outer loop
    vertex 26.927538885225104 23.404781731759293 8.820000000000002
    vertex -0.07246111477489792 23.665408272819832 9.15965512114594
    vertex 26.927538885225104 23.665408272819832 9.15965512114594
  endloop
endfacet
facet normal 0.0 0.6087614290087207 -0.7933533402912353
  outer loop
    vertex 26.927538885225104 24.00506339396577 9.420281662206483
    vertex -0.07246111477489792 23.665408272819832 9.15965512114594
    vertex -0.07246111477489792 24.00506339396577 9.420281662206483
  endloop
endfacet
facet normal 0.0 0.6087614290087207 -0.7933533402912353
  outer loop
    vertex -0.07246111477489792 23.665408272819832 9.15965512114594
    vertex 26.927538885225104 24.00506339396577 9.420281662206483
    vertex 26.927538885225104 23.665408272819832 9.15965512114594
  endloop
endfacet
facet normal 0.0 0.38268343236508934 -0.923879532511287
  outer loop
    vertex 26.927538885225104 24.400600159997637 9.584118355114073
    vertex -0.07246111477489792 24.00506339396577 9.420281662206483
    vertex -0.07246111477489792 24.400600159997637 9.584118355114073
  endloop
endfacet
facet normal 0.0 0.38268343236508934 -0.923879532511287
  outer loop
    vertex -0.07246111477489792 24.00506339396577 9.420281662206483
    vertex 26.927538885225104 24.400600159997637 9.584118355114073
    vertex 26.927538885225104 24.00506339396577 9.420281662206483
  endloop
endfacet
facet normal -0.0 -1.0 -0.0
  outer loop
    vertex 26.927538885225104 9.825063393965767 10.0
    vertex 6.927538885225102 9.825063393965767 0.0
    vertex 26.927538885225104 9.825063393965767 0.0
  endloop
endfacet
facet normal -0.0 -1.0 -0.0
  outer loop
    vertex 6.927538885225102 9.825063393965767 0.0
    vertex 26.927538885225104 9.825063393965767 10.0
    vertex 6.927538885225102 9.825063393965767 10.0
  endloop
endfacet
facet normal 0.0 0.0 1.0
  outer loop
    vertex 26.927538885225104 38.82506339396577 10.0
    vertex -0.07246111477489792 39.82506339396577 10.0
    vertex -0.07246111477489792 38.82506339396577 10.0
  endloop
endfacet
facet normal 0.0 0.0 1.0
  outer loop
    vertex -0.07246111477489792 39.82506339396577 10.0
    vertex 26.927538885225104 38.82506339396577 10.0
    vertex 26.927538885225104 39.82506339396577 10.0
  endloop
endfacet
facet normal 0.0 0.7933533402912347 0.6087614290087214
  outer loop
    vertex -0.07246111477489792 23.404781731759293 7.180000000000001
    vertex 26.927538885225104 23.665408272819832 6.8403448788540615
    vertex -0.07246111477489792 23.665408272819832 6.8403448788540615
  endloop
endfacet
facet normal 0.0 0.7933533402912347 0.6087614290087214
  outer loop
    vertex 26.927538885225104 23.665408272819832 6.8403448788540615
    vertex -0.07246111477489792 23.404781731759293 7.180000000000001
    vertex 26.927538885225104 23.404781731759293 7.180000000000001
  endloop
endfacet
facet normal 1.0 0.0 0.0
  outer loop
    vertex 6.927538885225102 -0.17493660603423294 0.0
    vertex 6.927538885225102 3.414592224899332 4.180000000000001
    vertex 6.927538885225102 -0.17493660603423294 10.0
  endloop
endfacet
facet normal 1.0 0.0 0.0
  outer loop
    vertex 6.927538885225102 3.414592224899332 4.180000000000001
    vertex 6.927538885225102 -0.17493660603423294 0.0
    vertex 6.927538885225102 3.675218765959873 3.840344878854063
  endloop
endfacet
facet normal 1.0 0.0 0.0
  outer loop
    vertex 6.927538885225102 3.675218765959873 3.840344878854063
    vertex 6.927538885225102 -0.17493660603423294 0.0
    vertex 6.927538885225102 4.014873887105811 3.579718337793521
  endloop
endfacet
facet normal 1.0 0.0 0.0
  outer loop
    vertex 6.927538885225102 4.014873887105811 3.579718337793521
    vertex 6.927538885225102 -0.17493660603423294 0.0
    vertex 6.927538885225102 9.825063393965767 0.0
  endloop
endfacet
facet normal 1.0 0.0 0.0
  outer loop
    vertex 6.927538885225102 -0.17493660603423294 10.0
    vertex 6.927538885225102 3.414592224899332 4.180000000000001
    vertex 6.927538885225102 3.250755531991739 4.575536766031866
  endloop
endfacet
facet normal 1.0 0.0 0.0
  outer loop
    vertex 6.927538885225102 -0.17493660603423294 10.0
    vertex 6.927538885225102 3.250755531991739 4.575536766031866
    vertex 6.927538885225102 3.1948738871058113 5.0
  endloop
endfacet
facet normal 1.0 0.0 0.0
  outer loop
    vertex 6.927538885225102 4.014873887105811 3.579718337793521
    vertex 6.927538885225102 9.825063393965767 0.0
    vertex 6.927538885225102 4.410410653137677 3.4158816448859284
  endloop
endfacet
facet normal 1.0 0.0 0.0
  outer loop
    vertex 6.927538885225102 4.410410653137677 3.4158816448859284
    vertex 6.927538885225102 9.825063393965767 0.0
    vertex 6.927538885225102 4.834873887105811 3.3600000000000003
  endloop
endfacet
facet normal 1.0 0.0 0.0
  outer loop
    vertex 6.927538885225102 4.834873887105811 3.3600000000000003
    vertex 6.927538885225102 9.825063393965767 0.0
    vertex 6.927538885225102 5.259337121073945 3.4158816448859284
  endloop
endfacet
facet normal 1.0 0.0 0.0
  outer loop
    vertex 6.927538885225102 5.259337121073945 3.4158816448859284
    vertex 6.927538885225102 9.825063393965767 0.0
    vertex 6.927538885225102 5.6548738871058095 3.579718337793521
  endloop
endfacet
facet normal 1.0 0.0 0.0
  outer loop
    vertex 6.927538885225102 5.6548738871058095 3.579718337793521
    vertex 6.927538885225102 9.825063393965767 0.0
    vertex 6.927538885225102 5.994529008251749 3.8403448788540624
  endloop
endfacet
facet normal 1.0 0.0 0.0
  outer loop
    vertex 6.927538885225102 5.994529008251749 3.8403448788540624
    vertex 6.927538885225102 9.825063393965767 0.0
    vertex 6.927538885225102 6.255155549312289 4.18
  endloop
endfacet
facet normal 1.0 0.0 0.0
  outer loop
    vertex 6.927538885225102 6.255155549312289 4.18
    vertex 6.927538885225102 9.825063393965767 0.0
    vertex 6.927538885225102 6.418992242219882 4.575536766031866
  endloop
endfacet
facet normal 1.0 0.0 0.0
  outer loop
    vertex 6.927538885225102 6.418992242219882 4.575536766031866
    vertex 6.927538885225102 9.825063393965767 0.0
    vertex 6.927538885225102 6.474873887105811 5.0
  endloop
endfacet
facet normal 1.0 0.0 0.0
  outer loop
    vertex 6.927538885225102 -0.17493660603423294 10.0
    vertex 6.927538885225102 4.0148738871058125 6.420281662206479
    vertex 6.927538885225102 9.825063393965767 10.0
  endloop
endfacet
facet normal 1.0 0.0 0.0
  outer loop
    vertex 6.927538885225102 4.0148738871058125 6.420281662206479
    vertex 6.927538885225102 -0.17493660603423294 10.0
    vertex 6.927538885225102 3.675218765959874 6.159655121145938
  endloop
endfacet
facet normal 1.0 0.0 0.0
  outer loop
    vertex 6.927538885225102 3.675218765959874 6.159655121145938
    vertex 6.927538885225102 -0.17493660603423294 10.0
    vertex 6.927538885225102 3.4145922248993323 5.82
  endloop
endfacet
facet normal 1.0 0.0 0.0
  outer loop
    vertex 6.927538885225102 3.4145922248993323 5.82
    vertex 6.927538885225102 -0.17493660603423294 10.0
    vertex 6.927538885225102 3.25075553199174 5.424463233968136
  endloop
endfacet
facet normal 1.0 0.0 0.0
  outer loop
    vertex 6.927538885225102 3.25075553199174 5.424463233968136
    vertex 6.927538885225102 -0.17493660603423294 10.0
    vertex 6.927538885225102 3.1948738871058113 5.0
  endloop
endfacet
facet normal 1.0 0.0 0.0
  outer loop
    vertex 6.927538885225102 9.825063393965767 10.0
    vertex 6.927538885225102 4.0148738871058125 6.420281662206479
    vertex 6.927538885225102 4.410410653137678 6.584118355114072
  endloop
endfacet
facet normal 1.0 0.0 0.0
  outer loop
    vertex 6.927538885225102 9.825063393965767 10.0
    vertex 6.927538885225102 4.410410653137678 6.584118355114072
    vertex 6.927538885225102 4.834873887105811 6.640000000000001
  endloop
endfacet
facet normal 1.0 0.0 0.0
  outer loop
    vertex 6.927538885225102 9.825063393965767 10.0
    vertex 6.927538885225102 4.834873887105811 6.640000000000001
    vertex 6.927538885225102 5.259337121073946 6.584118355114072
  endloop
endfacet
facet normal 1.0 0.0 0.0
  outer loop
    vertex 6.927538885225102 9.825063393965767 10.0
    vertex 6.927538885225102 5.259337121073946 6.584118355114072
    vertex 6.927538885225102 5.654873887105811 6.420281662206479
  endloop
endfacet
facet normal 1.0 0.0 0.0
  outer loop
    vertex 6.927538885225102 9.825063393965767 10.0
    vertex 6.927538885225102 5.654873887105811 6.420281662206479
    vertex 6.927538885225102 5.9945290082517495 6.159655121145937
  endloop
endfacet
facet normal 1.0 0.0 0.0
  outer loop
    vertex 6.927538885225102 9.825063393965767 10.0
    vertex 6.927538885225102 5.9945290082517495 6.159655121145937
    vertex 6.927538885225102 6.255155549312289 5.819999999999999
  endloop
endfacet
facet normal 1.0 0.0 0.0
  outer loop
    vertex 6.927538885225102 9.825063393965767 10.0
    vertex 6.927538885225102 6.255155549312289 5.819999999999999
    vertex 6.927538885225102 6.4189922422198835 5.424463233968133
  endloop
endfacet
facet normal 1.0 0.0 0.0
  outer loop
    vertex 6.927538885225102 9.825063393965767 10.0
    vertex 6.927538885225102 6.4189922422198835 5.424463233968133
    vertex 6.927538885225102 6.474873887105811 5.0
  endloop
endfacet
facet normal 1.0 0.0 0.0
  outer loop
    vertex 6.927538885225102 9.825063393965767 10.0
    vertex 6.927538885225102 6.474873887105811 5.0
    vertex 6.927538885225102 9.825063393965767 0.0
  endloop
endfacet
facet normal 0.0 -0.7933533402912339 0.6087614290087222
  outer loop
    vertex 26.927538885225104 26.24534505617225 7.180000000000001
    vertex -0.07246111477489792 25.984718515111705 6.8403448788540615
    vertex 26.927538885225104 25.984718515111705 6.8403448788540615
  endloop
endfacet
facet normal 0.0 -0.7933533402912339 0.6087614290087222
  outer loop
    vertex -0.07246111477489792 25.984718515111705 6.8403448788540615
    vertex 26.927538885225104 26.24534505617225 7.180000000000001
    vertex -0.07246111477489792 26.24534505617225 7.180000000000001
  endloop
endfacet
facet normal -0.0 -0.9914448613738108 -0.13052619222004944
  outer loop
    vertex 26.927538885225104 26.409181749079846 8.424463233968135
    vertex -0.07246111477489792 26.46506339396577 8.0
    vertex 26.927538885225104 26.46506339396577 8.0
  endloop
endfacet
facet normal -0.0 -0.9914448613738108 -0.13052619222004944
  outer loop
    vertex -0.07246111477489792 26.46506339396577 8.0
    vertex 26.927538885225104 26.409181749079846 8.424463233968135
    vertex -0.07246111477489792 26.409181749079846 8.424463233968135
  endloop
endfacet
facet normal 0.0 -0.3826834323650901 0.9238795325112867
  outer loop
    vertex 26.927538885225104 25.249526627933907 6.415881644885928
    vertex -0.07246111477489792 25.645063393965767 6.57971833779352
    vertex -0.07246111477489792 25.249526627933907 6.415881644885928
  endloop
endfacet
facet normal 0.0 -0.3826834323650901 0.9238795325112867
  outer loop
    vertex -0.07246111477489792 25.645063393965767 6.57971833779352
    vertex 26.927538885225104 25.249526627933907 6.415881644885928
    vertex 26.927538885225104 25.645063393965767 6.57971833779352
  endloop
endfacet
facet normal 0.0 -0.13052619222005127 0.9914448613738106
  outer loop
    vertex 26.927538885225104 24.82506339396577 6.36
    vertex -0.07246111477489792 25.249526627933907 6.415881644885928
    vertex -0.07246111477489792 24.82506339396577 6.36
  endloop
endfacet
facet normal 0.0 -0.13052619222005127 0.9914448613738106
  outer loop
    vertex -0.07246111477489792 25.249526627933907 6.415881644885928
    vertex 26.927538885225104 24.82506339396577 6.36
    vertex 26.927538885225104 25.249526627933907 6.415881644885928
  endloop
endfacet
facet normal 0.0 -0.6087614290087207 0.7933533402912353
  outer loop
    vertex 26.927538885225104 25.645063393965767 6.57971833779352
    vertex -0.07246111477489792 25.984718515111705 6.8403448788540615
    vertex -0.07246111477489792 25.645063393965767 6.57971833779352
  endloop
endfacet
facet normal 0.0 -0.6087614290087207 0.7933533402912353
  outer loop
    vertex -0.07246111477489792 25.984718515111705 6.8403448788540615
    vertex 26.927538885225104 25.645063393965767 6.57971833779352
    vertex 26.927538885225104 25.984718515111705 6.8403448788540615
  endloop
endfacet
facet normal 0.0 -0.9238795325112857 0.3826834323650923
  outer loop
    vertex 26.927538885225104 26.409181749079846 7.575536766031866
    vertex -0.07246111477489792 26.24534505617225 7.180000000000001
    vertex 26.927538885225104 26.24534505617225 7.180000000000001
  endloop
endfacet
facet normal 0.0 -0.9238795325112857 0.3826834323650923
  outer loop
    vertex -0.07246111477489792 26.24534505617225 7.180000000000001
    vertex 26.927538885225104 26.409181749079846 7.575536766031866
    vertex -0.07246111477489792 26.409181749079846 7.575536766031866
  endloop
endfacet
facet normal 0.0 -0.9914448613738108 0.13052619222004933
  outer loop
    vertex 26.927538885225104 26.46506339396577 8.0
    vertex -0.07246111477489792 26.409181749079846 7.575536766031866
    vertex 26.927538885225104 26.409181749079846 7.575536766031866
  endloop
endfacet
facet normal 0.0 -0.9914448613738108 0.13052619222004933
  outer loop
    vertex -0.07246111477489792 26.409181749079846 7.575536766031866
    vertex 26.927538885225104 26.46506339396577 8.0
    vertex -0.07246111477489792 26.46506339396577 8.0
  endloop
endfacet
facet normal -0.0 -0.3826834323650904 -0.9238795325112865
  outer loop
    vertex 26.927538885225104 25.645063393965774 9.420281662206481
    vertex -0.07246111477489792 25.249526627933907 9.584118355114073
    vertex -0.07246111477489792 25.645063393965774 9.420281662206481
  endloop
endfacet
facet normal -0.0 -0.3826834323650904 -0.9238795325112865
  outer loop
    vertex -0.07246111477489792 25.249526627933907 9.584118355114073
    vertex 26.927538885225104 25.645063393965774 9.420281662206481
    vertex 26.927538885225104 25.249526627933907 9.584118355114073
  endloop
endfacet
facet normal 0.0 0.13052619222005127 -0.9914448613738106
  outer loop
    vertex 26.927538885225104 24.82506339396577 9.640000000000002
    vertex -0.07246111477489792 24.400600159997637 9.584118355114073
    vertex -0.07246111477489792 24.82506339396577 9.640000000000002
  endloop
endfacet
facet normal 0.0 0.13052619222005127 -0.9914448613738106
  outer loop
    vertex -0.07246111477489792 24.400600159997637 9.584118355114073
    vertex 26.927538885225104 24.82506339396577 9.640000000000002
    vertex 26.927538885225104 24.400600159997637 9.584118355114073
  endloop
endfacet
facet normal -0.0 -0.6087614290087235 -0.793353340291233
  outer loop
    vertex 26.927538885225104 25.984718515111705 9.159655121145938
    vertex -0.07246111477489792 25.645063393965774 9.420281662206481
    vertex -0.07246111477489792 25.984718515111705 9.159655121145938
  endloop
endfacet
facet normal -0.0 -0.6087614290087235 -0.793353340291233
  outer loop
    vertex -0.07246111477489792 25.645063393965774 9.420281662206481
    vertex 26.927538885225104 25.984718515111705 9.159655121145938
    vertex 26.927538885225104 25.645063393965774 9.420281662206481
  endloop
endfacet
facet normal -0.0 -0.13052619222005163 -0.9914448613738105
  outer loop
    vertex 26.927538885225104 25.249526627933907 9.584118355114073
    vertex -0.07246111477489792 24.82506339396577 9.640000000000002
    vertex -0.07246111477489792 25.249526627933907 9.584118355114073
  endloop
endfacet
facet normal -0.0 -0.13052619222005163 -0.9914448613738105
  outer loop
    vertex -0.07246111477489792 24.82506339396577 9.640000000000002
    vertex 26.927538885225104 25.249526627933907 9.584118355114073
    vertex 26.927538885225104 24.82506339396577 9.640000000000002
  endloop
endfacet
facet normal -0.0 -0.7933533402912347 -0.6087614290087214
  outer loop
    vertex 26.927538885225104 25.984718515111705 9.159655121145938
    vertex -0.07246111477489792 26.24534505617225 8.820000000000002
    vertex 26.927538885225104 26.24534505617225 8.820000000000002
  endloop
endfacet
facet normal -0.0 -0.7933533402912347 -0.6087614290087214
  outer loop
    vertex -0.07246111477489792 26.24534505617225 8.820000000000002
    vertex 26.927538885225104 25.984718515111705 9.159655121145938
    vertex -0.07246111477489792 25.984718515111705 9.159655121145938
  endloop
endfacet
facet normal -0.0 -0.9238795325112856 -0.3826834323650924
  outer loop
    vertex 26.927538885225104 26.24534505617225 8.820000000000002
    vertex -0.07246111477489792 26.409181749079846 8.424463233968135
    vertex 26.927538885225104 26.409181749079846 8.424463233968135
  endloop
endfacet
facet normal -0.0 -0.9238795325112856 -0.3826834323650924
  outer loop
    vertex -0.07246111477489792 26.409181749079846 8.424463233968135
    vertex 26.927538885225104 26.24534505617225 8.820000000000002
    vertex -0.07246111477489792 26.24534505617225 8.820000000000002
  endloop
endfacet
facet normal 0.0 0.1305261922200529 -0.9914448613738104
  outer loop
    vertex 6.927538885225102 4.834873887105811 6.640000000000001
    vertex -0.07246111477489792 4.410410653137678 6.584118355114072
    vertex -0.07246111477489792 4.834873887105811 6.640000000000001
  endloop
endfacet
facet normal 0.0 0.1305261922200529 -0.9914448613738104
  outer loop
    vertex -0.07246111477489792 4.410410653137678 6.584118355114072
    vertex 6.927538885225102 4.834873887105811 6.640000000000001
    vertex 6.927538885225102 4.410410653137678 6.584118355114072
  endloop
endfacet
facet normal -0.0 -0.13052619222005224 -0.9914448613738103
  outer loop
    vertex 6.927538885225102 5.259337121073946 6.584118355114072
    vertex -0.07246111477489792 4.834873887105811 6.640000000000001
    vertex -0.07246111477489792 5.259337121073946 6.584118355114072
  endloop
endfacet
facet normal -0.0 -0.13052619222005224 -0.9914448613738103
  outer loop
    vertex -0.07246111477489792 4.834873887105811 6.640000000000001
    vertex 6.927538885225102 5.259337121073946 6.584118355114072
    vertex 6.927538885225102 4.834873887105811 6.640000000000001
  endloop
endfacet
facet normal -0.0 -0.3826834323650906 -0.9238795325112864
  outer loop
    vertex 6.927538885225102 5.654873887105811 6.420281662206479
    vertex -0.07246111477489792 5.259337121073946 6.584118355114072
    vertex -0.07246111477489792 5.654873887105811 6.420281662206479
  endloop
endfacet
facet normal -0.0 -0.3826834323650906 -0.9238795325112864
  outer loop
    vertex -0.07246111477489792 5.259337121073946 6.584118355114072
    vertex 6.927538885225102 5.654873887105811 6.420281662206479
    vertex 6.927538885225102 5.259337121073946 6.584118355114072
  endloop
endfacet
facet normal -0.0 -0.6087614290087214 -0.7933533402912347
  outer loop
    vertex 6.927538885225102 5.9945290082517495 6.159655121145937
    vertex -0.07246111477489792 5.654873887105811 6.420281662206479
    vertex -0.07246111477489792 5.9945290082517495 6.159655121145937
  endloop
endfacet
facet normal -0.0 -0.6087614290087214 -0.7933533402912347
  outer loop
    vertex -0.07246111477489792 5.654873887105811 6.420281662206479
    vertex 6.927538885225102 5.9945290082517495 6.159655121145937
    vertex 6.927538885225102 5.654873887105811 6.420281662206479
  endloop
endfacet
facet normal -0.0 -0.7933533402912363 -0.6087614290087194
  outer loop
    vertex 6.927538885225102 5.9945290082517495 6.159655121145937
    vertex -0.07246111477489792 6.255155549312289 5.819999999999999
    vertex 6.927538885225102 6.255155549312289 5.819999999999999
  endloop
endfacet
facet normal -0.0 -0.7933533402912363 -0.6087614290087194
  outer loop
    vertex -0.07246111477489792 6.255155549312289 5.819999999999999
    vertex 6.927538885225102 5.9945290082517495 6.159655121145937
    vertex -0.07246111477489792 5.9945290082517495 6.159655121145937
  endloop
endfacet
facet normal -0.0 -0.9238795325112862 -0.3826834323650915
  outer loop
    vertex 6.927538885225102 6.255155549312289 5.819999999999999
    vertex -0.07246111477489792 6.4189922422198835 5.424463233968133
    vertex 6.927538885225102 6.4189922422198835 5.424463233968133
  endloop
endfacet
facet normal -0.0 -0.9238795325112862 -0.3826834323650915
  outer loop
    vertex -0.07246111477489792 6.4189922422198835 5.424463233968133
    vertex 6.927538885225102 6.255155549312289 5.819999999999999
    vertex -0.07246111477489792 6.255155549312289 5.819999999999999
  endloop
endfacet
facet normal -0.0 -0.9914448613738108 -0.13052619222004966
  outer loop
    vertex 6.927538885225102 6.4189922422198835 5.424463233968133
    vertex -0.07246111477489792 6.474873887105811 5.0
    vertex 6.927538885225102 6.474873887105811 5.0
  endloop
endfacet
facet normal -0.0 -0.9914448613738108 -0.13052619222004966
  outer loop
    vertex -0.07246111477489792 6.474873887105811 5.0
    vertex 6.927538885225102 6.4189922422198835 5.424463233968133
    vertex -0.07246111477489792 6.4189922422198835 5.424463233968133
  endloop
endfacet
facet normal 0.0 -0.9914448613738104 0.13052619222005268
  outer loop
    vertex 6.927538885225102 6.474873887105811 5.0
    vertex -0.07246111477489792 6.418992242219882 4.575536766031866
    vertex 6.927538885225102 6.418992242219882 4.575536766031866
  endloop
endfacet
facet normal 0.0 -0.9914448613738104 0.13052619222005268
  outer loop
    vertex -0.07246111477489792 6.418992242219882 4.575536766031866
    vertex 6.927538885225102 6.474873887105811 5.0
    vertex -0.07246111477489792 6.474873887105811 5.0
  endloop
endfacet
facet normal 0.0 -0.923879532511287 0.38268343236508956
  outer loop
    vertex 6.927538885225102 6.418992242219882 4.575536766031866
    vertex -0.07246111477489792 6.255155549312289 4.18
    vertex 6.927538885225102 6.255155549312289 4.18
  endloop
endfacet
facet normal 0.0 -0.923879532511287 0.38268343236508956
  outer loop
    vertex -0.07246111477489792 6.255155549312289 4.18
    vertex 6.927538885225102 6.418992242219882 4.575536766031866
    vertex -0.07246111477489792 6.418992242219882 4.575536766031866
  endloop
endfacet
facet normal 0.0 -0.7933533402912356 0.6087614290087201
  outer loop
    vertex 6.927538885225102 6.255155549312289 4.18
    vertex -0.07246111477489792 5.994529008251749 3.8403448788540624
    vertex 6.927538885225102 5.994529008251749 3.8403448788540624
  endloop
endfacet
facet normal 0.0 -0.7933533402912356 0.6087614290087201
  outer loop
    vertex -0.07246111477489792 5.994529008251749 3.8403448788540624
    vertex 6.927538885225102 6.255155549312289 4.18
    vertex -0.07246111477489792 6.255155549312289 4.18
  endloop
endfacet
facet normal 0.0 -0.6087614290087195 0.7933533402912359
  outer loop
    vertex 6.927538885225102 5.6548738871058095 3.579718337793521
    vertex -0.07246111477489792 5.994529008251749 3.8403448788540624
    vertex -0.07246111477489792 5.6548738871058095 3.579718337793521
  endloop
endfacet
facet normal 0.0 -0.6087614290087195 0.7933533402912359
  outer loop
    vertex -0.07246111477489792 5.994529008251749 3.8403448788540624
    vertex 6.927538885225102 5.6548738871058095 3.579718337793521
    vertex 6.927538885225102 5.994529008251749 3.8403448788540624
  endloop
endfacet
facet normal 0.0 -0.3826834323650906 0.9238795325112864
  outer loop
    vertex 6.927538885225102 5.259337121073945 3.4158816448859284
    vertex -0.07246111477489792 5.6548738871058095 3.579718337793521
    vertex -0.07246111477489792 5.259337121073945 3.4158816448859284
  endloop
endfacet
facet normal 0.0 -0.3826834323650906 0.9238795325112864
  outer loop
    vertex -0.07246111477489792 5.6548738871058095 3.579718337793521
    vertex 6.927538885225102 5.259337121073945 3.4158816448859284
    vertex 6.927538885225102 5.6548738871058095 3.579718337793521
  endloop
endfacet
facet normal 0.0 -0.13052619222005107 0.9914448613738106
  outer loop
    vertex 6.927538885225102 4.834873887105811 3.3600000000000003
    vertex -0.07246111477489792 5.259337121073945 3.4158816448859284
    vertex -0.07246111477489792 4.834873887105811 3.3600000000000003
  endloop
endfacet
facet normal 0.0 -0.13052619222005107 0.9914448613738106
  outer loop
    vertex -0.07246111477489792 5.259337121073945 3.4158816448859284
    vertex 6.927538885225102 4.834873887105811 3.3600000000000003
    vertex 6.927538885225102 5.259337121073945 3.4158816448859284
  endloop
endfacet
facet normal 0.0 0.13052619222005107 0.9914448613738106
  outer loop
    vertex 6.927538885225102 4.410410653137677 3.4158816448859284
    vertex -0.07246111477489792 4.834873887105811 3.3600000000000003
    vertex -0.07246111477489792 4.410410653137677 3.4158816448859284
  endloop
endfacet
facet normal 0.0 0.13052619222005107 0.9914448613738106
  outer loop
    vertex -0.07246111477489792 4.834873887105811 3.3600000000000003
    vertex 6.927538885225102 4.410410653137677 3.4158816448859284
    vertex 6.927538885225102 4.834873887105811 3.3600000000000003
  endloop
endfacet
facet normal 0.0 0.3826834323650901 0.9238795325112867
  outer loop
    vertex 6.927538885225102 4.014873887105811 3.579718337793521
    vertex -0.07246111477489792 4.410410653137677 3.4158816448859284
    vertex -0.07246111477489792 4.014873887105811 3.579718337793521
  endloop
endfacet
facet normal 0.0 0.3826834323650901 0.9238795325112867
  outer loop
    vertex -0.07246111477489792 4.410410653137677 3.4158816448859284
    vertex 6.927538885225102 4.014873887105811 3.579718337793521
    vertex 6.927538885225102 4.410410653137677 3.4158816448859284
  endloop
endfacet
facet normal 0.0 0.6087614290087214 0.7933533402912347
  outer loop
    vertex 6.927538885225102 3.675218765959873 3.840344878854063
    vertex -0.07246111477489792 4.014873887105811 3.579718337793521
    vertex -0.07246111477489792 3.675218765959873 3.840344878854063
  endloop
endfacet
facet normal 0.0 0.6087614290087214 0.7933533402912347
  outer loop
    vertex -0.07246111477489792 4.014873887105811 3.579718337793521
    vertex 6.927538885225102 3.675218765959873 3.840344878854063
    vertex 6.927538885225102 4.014873887105811 3.579718337793521
  endloop
endfacet
facet normal 0.0 0.7933533402912349 0.6087614290087212
  outer loop
    vertex -0.07246111477489792 3.414592224899332 4.180000000000001
    vertex 6.927538885225102 3.675218765959873 3.840344878854063
    vertex -0.07246111477489792 3.675218765959873 3.840344878854063
  endloop
endfacet
facet normal 0.0 0.7933533402912349 0.6087614290087212
  outer loop
    vertex 6.927538885225102 3.675218765959873 3.840344878854063
    vertex -0.07246111477489792 3.414592224899332 4.180000000000001
    vertex 6.927538885225102 3.414592224899332 4.180000000000001
  endloop
endfacet
facet normal 0.0 0.9238795325112867 0.3826834323650901
  outer loop
    vertex -0.07246111477489792 3.250755531991739 4.575536766031866
    vertex 6.927538885225102 3.414592224899332 4.180000000000001
    vertex -0.07246111477489792 3.414592224899332 4.180000000000001
  endloop
endfacet
facet normal 0.0 0.9238795325112867 0.3826834323650901
  outer loop
    vertex 6.927538885225102 3.414592224899332 4.180000000000001
    vertex -0.07246111477489792 3.250755531991739 4.575536766031866
    vertex 6.927538885225102 3.250755531991739 4.575536766031866
  endloop
endfacet
facet normal 0.0 0.9914448613738106 0.13052619222005107
  outer loop
    vertex -0.07246111477489792 3.1948738871058113 5.0
    vertex 6.927538885225102 3.250755531991739 4.575536766031866
    vertex -0.07246111477489792 3.250755531991739 4.575536766031866
  endloop
endfacet
facet normal 0.0 0.9914448613738106 0.13052619222005107
  outer loop
    vertex 6.927538885225102 3.250755531991739 4.575536766031866
    vertex -0.07246111477489792 3.1948738871058113 5.0
    vertex 6.927538885225102 3.1948738871058113 5.0
  endloop
endfacet
facet normal 0.0 0.9914448613738103 -0.13052619222005224
  outer loop
    vertex -0.07246111477489792 3.25075553199174 5.424463233968136
    vertex 6.927538885225102 3.1948738871058113 5.0
    vertex -0.07246111477489792 3.1948738871058113 5.0
  endloop
endfacet
facet normal 0.0 0.9914448613738103 -0.13052619222005224
  outer loop
    vertex 6.927538885225102 3.1948738871058113 5.0
    vertex -0.07246111477489792 3.25075553199174 5.424463233968136
    vertex 6.927538885225102 3.25075553199174 5.424463233968136
  endloop
endfacet
facet normal 0.0 0.9238795325112864 -0.3826834323650906
  outer loop
    vertex -0.07246111477489792 3.4145922248993323 5.82
    vertex 6.927538885225102 3.25075553199174 5.424463233968136
    vertex -0.07246111477489792 3.25075553199174 5.424463233968136
  endloop
endfacet
facet normal 0.0 0.9238795325112864 -0.3826834323650906
  outer loop
    vertex 6.927538885225102 3.25075553199174 5.424463233968136
    vertex -0.07246111477489792 3.4145922248993323 5.82
    vertex 6.927538885225102 3.4145922248993323 5.82
  endloop
endfacet
facet normal 0.0 0.7933533402912349 -0.6087614290087212
  outer loop
    vertex -0.07246111477489792 3.675218765959874 6.159655121145938
    vertex 6.927538885225102 3.4145922248993323 5.82
    vertex -0.07246111477489792 3.4145922248993323 5.82
  endloop
endfacet
facet normal 0.0 0.7933533402912349 -0.6087614290087212
  outer loop
    vertex 6.927538885225102 3.4145922248993323 5.82
    vertex -0.07246111477489792 3.675218765959874 6.159655121145938
    vertex 6.927538885225102 3.675218765959874 6.159655121145938
  endloop
endfacet
facet normal 0.0 0.6087614290087195 -0.7933533402912359
  outer loop
    vertex 6.927538885225102 4.0148738871058125 6.420281662206479
    vertex -0.07246111477489792 3.675218765959874 6.159655121145938
    vertex -0.07246111477489792 4.0148738871058125 6.420281662206479
  endloop
endfacet
facet normal 0.0 0.6087614290087195 -0.7933533402912359
  outer loop
    vertex -0.07246111477489792 3.675218765959874 6.159655121145938
    vertex 6.927538885225102 4.0148738871058125 6.420281662206479
    vertex 6.927538885225102 3.675218765959874 6.159655121145938
  endloop
endfacet
facet normal 0.0 0.3826834323650906 -0.9238795325112864
  outer loop
    vertex 6.927538885225102 4.410410653137678 6.584118355114072
    vertex -0.07246111477489792 4.0148738871058125 6.420281662206479
    vertex -0.07246111477489792 4.410410653137678 6.584118355114072
  endloop
endfacet
facet normal 0.0 0.3826834323650906 -0.9238795325112864
  outer loop
    vertex -0.07246111477489792 4.0148738871058125 6.420281662206479
    vertex 6.927538885225102 4.410410653137678 6.584118355114072
    vertex 6.927538885225102 4.0148738871058125 6.420281662206479
  endloop
endfacet
facet normal 0.0 0.0 1.0
  outer loop
    vertex 0.0006251492646754563 -0.048347483382298016 10.0
    vertex -0.07246111477489792 9.825063393965767 10.0
    vertex -0.07246111477489792 -0.17493660603423294 10.0
  endloop
endfacet
facet normal 0.0 0.0 1.0
  outer loop
    vertex -0.07246111477489792 9.825063393965767 10.0
    vertex 0.0006251492646754563 -0.048347483382298016 10.0
    vertex -0.07246111477489792 10.82506339396577 10.0
  endloop
endfacet
facet normal 0.0 0.0 1.0
  outer loop
    vertex -0.07246111477489792 10.82506339396577 10.0
    vertex 0.0006251492646754563 -0.048347483382298016 10.0
    vertex 6.927538885225102 9.825063393965767 10.0
  endloop
endfacet
facet normal 0.0 0.0 1.0
  outer loop
    vertex -0.07246111477489792 10.82506339396577 10.0
    vertex 6.927538885225102 9.825063393965767 10.0
    vertex 26.927538885225104 10.82506339396577 10.0
  endloop
endfacet
facet normal 0.0 0.0 1.0
  outer loop
    vertex 6.927538885225102 9.825063393965767 10.0
    vertex 0.0006251492646754563 -0.048347483382298016 10.0
    vertex 0.6513179872425786 0.768310684047167 10.0
  endloop
endfacet
facet normal 0.0 0.0 1.0
  outer loop
    vertex 6.927538885225102 9.825063393965767 10.0
    vertex 0.6513179872425786 0.768310684047167 10.0
    vertex 1.4912056914960357 1.3887302002367006 10.0
  endloop
endfacet
facet normal 0.0 0.0 1.0
  outer loop
    vertex 6.927538885225102 9.825063393965767 10.0
    vertex 1.4912056914960357 1.3887302002367006 10.0
    vertex 2.4630513029602246 1.770630500449711 10.0
  endloop
endfacet
facet normal 0.0 0.0 1.0
  outer loop
    vertex 6.927538885225102 9.825063393965767 10.0
    vertex 2.4630513029602246 1.770630500449711 10.0
    vertex 3.5006251492646725 1.8879857103467694 10.0
  endloop
endfacet
facet normal 0.0 0.0 1.0
  outer loop
    vertex 6.927538885225102 9.825063393965767 10.0
    vertex 3.5006251492646725 1.8879857103467694 10.0
    vertex 4.533218287455591 1.7327982663120454 10.0
  endloop
endfacet
facet normal 0.0 0.0 1.0
  outer loop
    vertex 6.927538885225102 9.825063393965767 10.0
    vertex 4.533218287455591 1.7327982663120454 10.0
    vertex 5.490461201606102 1.315643936197128 10.0
  endloop
endfacet
facet normal 0.0 0.0 1.0
  outer loop
    vertex 6.927538885225102 9.825063393965767 10.0
    vertex 5.490461201606102 1.315643936197128 10.0
    vertex 6.307119369035568 0.6649510982192248 10.0
  endloop
endfacet
facet normal 0.0 0.0 1.0
  outer loop
    vertex 6.927538885225102 9.825063393965767 10.0
    vertex 6.307119369035568 0.6649510982192248 10.0
    vertex 6.927538885225102 -0.17493660603423294 10.0
  endloop
endfacet
facet normal 0.0 0.0 1.0
  outer loop
    vertex 26.927538885225104 10.82506339396577 10.0
    vertex 6.927538885225102 9.825063393965767 10.0
    vertex 26.927538885225104 9.825063393965767 10.0
  endloop
endfacet
facet normal -0.8043441315807568 -0.594163713122569 -4.862892363666379e-19
  outer loop
    vertex 6.307119369035568 0.6649510982192248 10.0
    vertex 6.927538885225102 -0.17493660603423294 0.0
    vertex 6.927538885225102 -0.17493660603423294 10.0
  endloop
endfacet
facet normal -0.8043441315807568 -0.594163713122569 -4.862892363666379e-19
  outer loop
    vertex 6.927538885225102 -0.17493660603423294 0.0
    vertex 6.307119369035568 0.6649510982192248 10.0
    vertex 6.307119369035568 0.6649510982192248 -2.114974861910923e-15
  endloop
endfacet
facet normal -0.6231558850529539 -0.7820976556184461 -0.0
  outer loop
    vertex 6.307119369035568 0.6649510982192248 10.0
    vertex 5.490461201606102 1.315643936197128 -2.114974861910923e-15
    vertex 6.307119369035568 0.6649510982192248 -2.114974861910923e-15
  endloop
endfacet
facet normal -0.6231558850529539 -0.7820976556184461 -0.0
  outer loop
    vertex 5.490461201606102 1.315643936197128 -2.114974861910923e-15
    vertex 6.307119369035568 0.6649510982192248 10.0
    vertex 5.490461201606102 1.315643936197128 10.0
  endloop
endfacet
facet normal -0.39950059477258465 -0.9167329353614122 -0.0
  outer loop
    vertex 5.490461201606102 1.315643936197128 10.0
    vertex 4.533218287455591 1.7327982663120454 -2.114974861910923e-15
    vertex 5.490461201606102 1.315643936197128 -2.114974861910923e-15
  endloop
endfacet
facet normal -0.39950059477258465 -0.9167329353614122 -0.0
  outer loop
    vertex 4.533218287455591 1.7327982663120454 -2.114974861910923e-15
    vertex 5.490461201606102 1.315643936197128 10.0
    vertex 4.533218287455591 1.7327982663120454 10.0
  endloop
endfacet
facet normal -0.14861999916441035 -0.9888943805323047 -0.0
  outer loop
    vertex 4.533218287455591 1.7327982663120454 10.0
    vertex 3.5006251492646725 1.8879857103467694 -2.114974861910923e-15
    vertex 4.533218287455591 1.7327982663120454 -2.114974861910923e-15
  endloop
endfacet
facet normal -0.14861999916441035 -0.9888943805323047 -0.0
  outer loop
    vertex 3.5006251492646725 1.8879857103467694 -2.114974861910923e-15
    vertex 4.533218287455591 1.7327982663120454 10.0
    vertex 3.5006251492646725 1.8879857103467694 10.0
  endloop
endfacet
facet normal 0.11238880378065577 -0.9936643078951529 0.0
  outer loop
    vertex 3.5006251492646725 1.8879857103467694 10.0
    vertex 2.4630513029602246 1.770630500449711 -2.114974861910923e-15
    vertex 3.5006251492646725 1.8879857103467694 -2.114974861910923e-15
  endloop
endfacet
facet normal 0.11238880378065577 -0.9936643078951529 0.0
  outer loop
    vertex 2.4630513029602246 1.770630500449711 -2.114974861910923e-15
    vertex 3.5006251492646725 1.8879857103467694 10.0
    vertex 2.4630513029602246 1.770630500449711 10.0
  endloop
endfacet
facet normal 0.3657384954793506 -0.9307176547828568 0.0
  outer loop
    vertex 2.4630513029602246 1.770630500449711 10.0
    vertex 1.4912056914960357 1.3887302002367006 -2.114974861910923e-15
    vertex 2.4630513029602246 1.770630500449711 -2.114974861910923e-15
  endloop
endfacet
facet normal 0.3657384954793506 -0.9307176547828568 0.0
  outer loop
    vertex 1.4912056914960357 1.3887302002367006 -2.114974861910923e-15
    vertex 2.4630513029602246 1.770630500449711 10.0
    vertex 1.4912056914960357 1.3887302002367006 10.0
  endloop
endfacet
facet normal 0.5941637131225687 -0.8043441315807569 0.0
  outer loop
    vertex 1.4912056914960357 1.3887302002367006 10.0
    vertex 0.6513179872425786 0.768310684047167 -2.114974861910923e-15
    vertex 1.4912056914960357 1.3887302002367006 -2.114974861910923e-15
  endloop
endfacet
facet normal 0.5941637131225687 -0.8043441315807569 0.0
  outer loop
    vertex 0.6513179872425786 0.768310684047167 -2.114974861910923e-15
    vertex 1.4912056914960357 1.3887302002367006 10.0
    vertex 0.6513179872425786 0.768310684047167 10.0
  endloop
endfacet
facet normal 0.7820976556184462 -0.6231558850529538 0.0
  outer loop
    vertex 0.6513179872425786 0.768310684047167 -2.114974861910923e-15
    vertex 0.0006251492646754563 -0.048347483382298016 10.0
    vertex 0.0006251492646754563 -0.048347483382298016 -2.114974861910923e-15
  endloop
endfacet
facet normal 0.7820976556184462 -0.6231558850529538 0.0
  outer loop
    vertex 0.0006251492646754563 -0.048347483382298016 10.0
    vertex 0.6513179872425786 0.768310684047167 -2.114974861910923e-15
    vertex 0.6513179872425786 0.768310684047167 10.0
  endloop
endfacet
facet normal 3.299664623868047e-17 3.433250761755324e-17 -1.0
  outer loop
    vertex -0.07246111477489792 39.82506339396577 0.0
    vertex 0.0006251492646754563 -0.048347483382298016 -2.114974861910923e-15
    vertex -0.07246111477489792 -0.17493660603423294 0.0
  endloop
endfacet
facet normal 3.299664623868047e-17 3.433250761755324e-17 -1.0
  outer loop
    vertex 0.0006251492646754563 -0.048347483382298016 -2.114974861910923e-15
    vertex -0.07246111477489792 39.82506339396577 0.0
    vertex 26.927538885225104 39.82506339396577 0.0
  endloop
endfacet
facet normal 3.299664623868047e-17 3.433250761755324e-17 -1.0
  outer loop
    vertex 0.0006251492646754563 -0.048347483382298016 -2.114974861910923e-15
    vertex 26.927538885225104 39.82506339396577 0.0
    vertex 0.6513179872425786 0.768310684047167 -2.114974861910923e-15
  endloop
endfacet
facet normal 3.299664623868047e-17 3.433250761755324e-17 -1.0
  outer loop
    vertex 0.6513179872425786 0.768310684047167 -2.114974861910923e-15
    vertex 26.927538885225104 39.82506339396577 0.0
    vertex 6.927538885225102 9.825063393965767 0.0
  endloop
endfacet
facet normal 3.299664623868047e-17 3.433250761755324e-17 -1.0
  outer loop
    vertex 0.6513179872425786 0.768310684047167 -2.114974861910923e-15
    vertex 6.927538885225102 9.825063393965767 0.0
    vertex 1.4912056914960357 1.3887302002367006 -2.114974861910923e-15
  endloop
endfacet
facet normal 3.299664623868047e-17 3.433250761755324e-17 -1.0
  outer loop
    vertex 1.4912056914960357 1.3887302002367006 -2.114974861910923e-15
    vertex 6.927538885225102 9.825063393965767 0.0
    vertex 2.4630513029602246 1.770630500449711 -2.114974861910923e-15
  endloop
endfacet
facet normal 3.299664623868047e-17 3.433250761755324e-17 -1.0
  outer loop
    vertex 2.4630513029602246 1.770630500449711 -2.114974861910923e-15
    vertex 6.927538885225102 9.825063393965767 0.0
    vertex 3.5006251492646725 1.8879857103467694 -2.114974861910923e-15
  endloop
endfacet
facet normal 3.299664623868047e-17 3.433250761755324e-17 -1.0
  outer loop
    vertex 3.5006251492646725 1.8879857103467694 -2.114974861910923e-15
    vertex 6.927538885225102 9.825063393965767 0.0
    vertex 4.533218287455591 1.7327982663120454 -2.114974861910923e-15
  endloop
endfacet
facet normal 3.299664623868047e-17 3.433250761755324e-17 -1.0
  outer loop
    vertex 4.533218287455591 1.7327982663120454 -2.114974861910923e-15
    vertex 6.927538885225102 9.825063393965767 0.0
    vertex 5.490461201606102 1.315643936197128 -2.114974861910923e-15
  endloop
endfacet
facet normal 3.299664623868047e-17 3.433250761755324e-17 -1.0
  outer loop
    vertex 5.490461201606102 1.315643936197128 -2.114974861910923e-15
    vertex 6.927538885225102 9.825063393965767 0.0
    vertex 6.307119369035568 0.6649510982192248 -2.114974861910923e-15
  endloop
endfacet
facet normal 3.299664623868047e-17 3.433250761755324e-17 -1.0
  outer loop
    vertex 6.927538885225102 9.825063393965767 0.0
    vertex 26.927538885225104 39.82506339396577 0.0
    vertex 26.927538885225104 9.825063393965767 0.0
  endloop
endfacet
facet normal 3.299664623868047e-17 3.433250761755324e-17 -1.0
  outer loop
    vertex 6.927538885225102 -0.17493660603423294 0.0
    vertex 6.307119369035568 0.6649510982192248 -2.114974861910923e-15
    vertex 6.927538885225102 9.825063393965767 0.0
  endloop
endfacet
endsolid cam_mount
